<mxfile host="app.diagrams.net" modified="2024-02-06T14:03:23.464Z" agent="Mozilla/5.0 (Windows NT 10.0; Win64; x64; rv:122.0) Gecko/20100101 Firefox/122.0" etag="V3ppeqZt5kq3AJOtDPDQ" version="23.1.1" type="device">
  <diagram name="Page-1" id="shnyuA23YLiVW8KLITnA">
    <mxGraphModel dx="794" dy="404" grid="1" gridSize="10" guides="1" tooltips="1" connect="1" arrows="1" fold="1" page="1" pageScale="1" pageWidth="1100" pageHeight="850" math="0" shadow="0">
      <root>
        <mxCell id="0" />
        <mxCell id="1" parent="0" />
        <mxCell id="hT7j422rRje0JUT3CePd-1" value="" style="shape=table;startSize=0;container=1;collapsible=0;childLayout=tableLayout;" parent="1" vertex="1">
          <mxGeometry x="40" y="120" width="300" height="40" as="geometry" />
        </mxCell>
        <mxCell id="hT7j422rRje0JUT3CePd-2" value="" style="shape=tableRow;horizontal=0;startSize=0;swimlaneHead=0;swimlaneBody=0;strokeColor=inherit;top=0;left=0;bottom=0;right=0;collapsible=0;dropTarget=0;fillColor=none;points=[[0,0.5],[1,0.5]];portConstraint=eastwest;" parent="hT7j422rRje0JUT3CePd-1" vertex="1">
          <mxGeometry width="300" height="40" as="geometry" />
        </mxCell>
        <mxCell id="hT7j422rRje0JUT3CePd-3" value="&lt;font color=&quot;#0080ff&quot;&gt;p0&lt;/font&gt;" style="shape=partialRectangle;html=1;whiteSpace=wrap;connectable=0;strokeColor=inherit;overflow=hidden;fillColor=none;top=0;left=0;bottom=0;right=0;pointerEvents=1;" parent="hT7j422rRje0JUT3CePd-2" vertex="1">
          <mxGeometry width="60" height="40" as="geometry">
            <mxRectangle width="60" height="40" as="alternateBounds" />
          </mxGeometry>
        </mxCell>
        <mxCell id="hT7j422rRje0JUT3CePd-4" value="&lt;font color=&quot;#008421&quot;&gt;p1&lt;/font&gt;" style="shape=partialRectangle;html=1;whiteSpace=wrap;connectable=0;strokeColor=inherit;overflow=hidden;fillColor=none;top=0;left=0;bottom=0;right=0;pointerEvents=1;" parent="hT7j422rRje0JUT3CePd-2" vertex="1">
          <mxGeometry x="60" width="60" height="40" as="geometry">
            <mxRectangle width="60" height="40" as="alternateBounds" />
          </mxGeometry>
        </mxCell>
        <mxCell id="hT7j422rRje0JUT3CePd-5" value="&lt;font color=&quot;#e699a0&quot;&gt;p2&lt;/font&gt;" style="shape=partialRectangle;html=1;whiteSpace=wrap;connectable=0;strokeColor=inherit;overflow=hidden;fillColor=none;top=0;left=0;bottom=0;right=0;pointerEvents=1;" parent="hT7j422rRje0JUT3CePd-2" vertex="1">
          <mxGeometry x="120" width="60" height="40" as="geometry">
            <mxRectangle width="60" height="40" as="alternateBounds" />
          </mxGeometry>
        </mxCell>
        <mxCell id="hT7j422rRje0JUT3CePd-6" value="&lt;font color=&quot;#c18740&quot;&gt;p3&lt;/font&gt;" style="shape=partialRectangle;html=1;whiteSpace=wrap;connectable=0;strokeColor=inherit;overflow=hidden;fillColor=none;top=0;left=0;bottom=0;right=0;pointerEvents=1;" parent="hT7j422rRje0JUT3CePd-2" vertex="1">
          <mxGeometry x="180" width="60" height="40" as="geometry">
            <mxRectangle width="60" height="40" as="alternateBounds" />
          </mxGeometry>
        </mxCell>
        <mxCell id="hT7j422rRje0JUT3CePd-7" value="&lt;font color=&quot;#c78eff&quot;&gt;p4&lt;/font&gt;" style="shape=partialRectangle;html=1;whiteSpace=wrap;connectable=0;strokeColor=inherit;overflow=hidden;fillColor=none;top=0;left=0;bottom=0;right=0;pointerEvents=1;" parent="hT7j422rRje0JUT3CePd-2" vertex="1">
          <mxGeometry x="240" width="60" height="40" as="geometry">
            <mxRectangle width="60" height="40" as="alternateBounds" />
          </mxGeometry>
        </mxCell>
        <mxCell id="hT7j422rRje0JUT3CePd-8" value="&lt;font style=&quot;font-size: 28px;&quot;&gt;Plot-Resolve-Resolve&lt;/font&gt;" style="text;html=1;align=center;verticalAlign=middle;resizable=0;points=[];autosize=1;strokeColor=none;fillColor=none;" parent="1" vertex="1">
          <mxGeometry x="10" y="10" width="290" height="50" as="geometry" />
        </mxCell>
        <mxCell id="hT7j422rRje0JUT3CePd-9" value="&lt;b&gt;Input Buffer&lt;/b&gt;" style="text;html=1;align=center;verticalAlign=middle;resizable=0;points=[];autosize=1;strokeColor=none;fillColor=none;" parent="1" vertex="1">
          <mxGeometry x="40" y="78" width="90" height="30" as="geometry" />
        </mxCell>
        <mxCell id="hT7j422rRje0JUT3CePd-10" value="&lt;h1&gt;Plot Pass&lt;/h1&gt;" style="text;html=1;strokeColor=none;fillColor=none;spacing=5;spacingTop=-20;whiteSpace=wrap;overflow=hidden;rounded=0;" parent="1" vertex="1">
          <mxGeometry x="103.5" y="240" width="120" height="40" as="geometry" />
        </mxCell>
        <mxCell id="hT7j422rRje0JUT3CePd-11" value="" style="shape=step;perimeter=stepPerimeter;whiteSpace=wrap;html=1;fixedSize=1;rotation=90;" parent="1" vertex="1">
          <mxGeometry x="160" y="150" width="30" height="80" as="geometry" />
        </mxCell>
        <mxCell id="hT7j422rRje0JUT3CePd-12" value="" style="whiteSpace=wrap;html=1;aspect=fixed;" parent="1" vertex="1">
          <mxGeometry x="315" y="200" width="120" height="120" as="geometry" />
        </mxCell>
        <mxCell id="hT7j422rRje0JUT3CePd-13" value="" style="shape=step;perimeter=stepPerimeter;whiteSpace=wrap;html=1;fixedSize=1;" parent="1" vertex="1">
          <mxGeometry x="250" y="220" width="30" height="80" as="geometry" />
        </mxCell>
        <mxCell id="hT7j422rRje0JUT3CePd-14" value="" style="whiteSpace=wrap;html=1;aspect=fixed;fillColor=#dae8fc;strokeColor=#6c8ebf;" parent="1" vertex="1">
          <mxGeometry x="335" y="220" width="10" height="10" as="geometry" />
        </mxCell>
        <mxCell id="hT7j422rRje0JUT3CePd-15" value="" style="whiteSpace=wrap;html=1;aspect=fixed;fillColor=#d5e8d4;strokeColor=#82b366;" parent="1" vertex="1">
          <mxGeometry x="395" y="225" width="10" height="10" as="geometry" />
        </mxCell>
        <mxCell id="hT7j422rRje0JUT3CePd-16" value="" style="whiteSpace=wrap;html=1;aspect=fixed;fillColor=#f8cecc;strokeColor=#b85450;" parent="1" vertex="1">
          <mxGeometry x="360" y="257" width="10" height="10" as="geometry" />
        </mxCell>
        <mxCell id="hT7j422rRje0JUT3CePd-17" value="" style="whiteSpace=wrap;html=1;aspect=fixed;fillColor=#ffe6cc;strokeColor=#d79b00;" parent="1" vertex="1">
          <mxGeometry x="370" y="293" width="10" height="10" as="geometry" />
        </mxCell>
        <mxCell id="hT7j422rRje0JUT3CePd-18" value="" style="whiteSpace=wrap;html=1;aspect=fixed;fillColor=#e1d5e7;strokeColor=#9673a6;" parent="1" vertex="1">
          <mxGeometry x="399" y="288" width="10" height="10" as="geometry" />
        </mxCell>
        <mxCell id="hT7j422rRje0JUT3CePd-19" value="&lt;h1&gt;Resolve Pass Vertical Compute&lt;br&gt;&lt;/h1&gt;" style="text;html=1;strokeColor=none;fillColor=none;spacing=5;spacingTop=-20;whiteSpace=wrap;overflow=hidden;rounded=0;" parent="1" vertex="1">
          <mxGeometry x="490" y="200" width="190" height="120" as="geometry" />
        </mxCell>
        <mxCell id="hT7j422rRje0JUT3CePd-20" value="" style="shape=step;perimeter=stepPerimeter;whiteSpace=wrap;html=1;fixedSize=1;" parent="1" vertex="1">
          <mxGeometry x="450" y="220" width="30" height="80" as="geometry" />
        </mxCell>
        <mxCell id="hT7j422rRje0JUT3CePd-21" value="" style="shape=step;perimeter=stepPerimeter;whiteSpace=wrap;html=1;fixedSize=1;rotation=90;" parent="1" vertex="1">
          <mxGeometry x="560" y="293" width="30" height="80" as="geometry" />
        </mxCell>
        <mxCell id="hT7j422rRje0JUT3CePd-22" value="" style="whiteSpace=wrap;html=1;aspect=fixed;" parent="1" vertex="1">
          <mxGeometry x="515" y="370" width="120" height="120" as="geometry" />
        </mxCell>
        <mxCell id="hT7j422rRje0JUT3CePd-29" value="" style="rounded=0;whiteSpace=wrap;html=1;rotation=-90;fillColor=#dae8fc;strokeColor=#6c8ebf;" parent="1" vertex="1">
          <mxGeometry x="520" y="395" width="30" height="10" as="geometry" />
        </mxCell>
        <mxCell id="hT7j422rRje0JUT3CePd-30" value="" style="rounded=0;whiteSpace=wrap;html=1;rotation=-90;fillColor=#d5e8d4;strokeColor=#82b366;" parent="1" vertex="1">
          <mxGeometry x="590" y="405" width="30" height="10" as="geometry" />
        </mxCell>
        <mxCell id="hT7j422rRje0JUT3CePd-31" value="" style="rounded=0;whiteSpace=wrap;html=1;rotation=-90;fillColor=#f8cecc;strokeColor=#b85450;" parent="1" vertex="1">
          <mxGeometry x="540" y="420" width="30" height="10" as="geometry" />
        </mxCell>
        <mxCell id="hT7j422rRje0JUT3CePd-32" value="" style="rounded=0;whiteSpace=wrap;html=1;rotation=-90;fillColor=#ffe6cc;strokeColor=#d79b00;" parent="1" vertex="1">
          <mxGeometry x="560" y="460" width="30" height="10" as="geometry" />
        </mxCell>
        <mxCell id="hT7j422rRje0JUT3CePd-33" value="" style="rounded=0;whiteSpace=wrap;html=1;rotation=-90;fillColor=#e1d5e7;strokeColor=#9673a6;" parent="1" vertex="1">
          <mxGeometry x="590" y="450" width="30" height="10" as="geometry" />
        </mxCell>
        <mxCell id="hT7j422rRje0JUT3CePd-34" value="&lt;h1&gt;Resolve Pass Horizontal Fragment&lt;br&gt;&lt;/h1&gt;" style="text;html=1;strokeColor=none;fillColor=none;spacing=5;spacingTop=-20;whiteSpace=wrap;overflow=hidden;rounded=0;" parent="1" vertex="1">
          <mxGeometry x="294" y="370" width="190" height="120" as="geometry" />
        </mxCell>
        <mxCell id="hT7j422rRje0JUT3CePd-35" value="" style="shape=step;perimeter=stepPerimeter;whiteSpace=wrap;html=1;fixedSize=1;rotation=-180;" parent="1" vertex="1">
          <mxGeometry x="450" y="385" width="30" height="80" as="geometry" />
        </mxCell>
        <mxCell id="hT7j422rRje0JUT3CePd-36" value="" style="shape=step;perimeter=stepPerimeter;whiteSpace=wrap;html=1;fixedSize=1;rotation=-180;" parent="1" vertex="1">
          <mxGeometry x="250" y="385" width="30" height="80" as="geometry" />
        </mxCell>
        <mxCell id="hT7j422rRje0JUT3CePd-37" value="" style="whiteSpace=wrap;html=1;aspect=fixed;" parent="1" vertex="1">
          <mxGeometry x="106" y="370" width="120" height="120" as="geometry" />
        </mxCell>
        <mxCell id="hT7j422rRje0JUT3CePd-43" value="" style="ellipse;whiteSpace=wrap;html=1;aspect=fixed;fillColor=#dae8fc;strokeColor=#6c8ebf;" parent="1" vertex="1">
          <mxGeometry x="111" y="380" width="35" height="35" as="geometry" />
        </mxCell>
        <mxCell id="hT7j422rRje0JUT3CePd-44" value="" style="ellipse;whiteSpace=wrap;html=1;aspect=fixed;fillColor=#d5e8d4;strokeColor=#82b366;" parent="1" vertex="1">
          <mxGeometry x="181" y="392.5" width="35" height="35" as="geometry" />
        </mxCell>
        <mxCell id="hT7j422rRje0JUT3CePd-45" value="" style="ellipse;whiteSpace=wrap;html=1;aspect=fixed;fillColor=#f8cecc;strokeColor=#b85450;" parent="1" vertex="1">
          <mxGeometry x="121" y="412.5" width="35" height="35" as="geometry" />
        </mxCell>
        <mxCell id="hT7j422rRje0JUT3CePd-46" value="" style="ellipse;whiteSpace=wrap;html=1;aspect=fixed;fillColor=#ffe6cc;strokeColor=#d79b00;" parent="1" vertex="1">
          <mxGeometry x="146" y="447.5" width="35" height="35" as="geometry" />
        </mxCell>
        <mxCell id="hT7j422rRje0JUT3CePd-47" value="" style="ellipse;whiteSpace=wrap;html=1;aspect=fixed;fillColor=#e1d5e7;strokeColor=#9673a6;" parent="1" vertex="1">
          <mxGeometry x="183.5" y="437.5" width="35" height="35" as="geometry" />
        </mxCell>
      </root>
    </mxGraphModel>
  </diagram>
</mxfile>
